<svg xmlns="http://www.w3.org/2000/svg" width="752pt" height="752pt" version="1.1" viewBox="0 0 752 752">
 <g fill="#12b0fb">
  <path d="m367.48 305.26c22.316 4.6016 32.75 7.6914 46.012 13.641 29.168 13.098 59.379 36.797 84.613 66.383 9.543 11.191 17.887 33.07 19.891 52.191 2.9375 27.922-8.7148 57.73-32.953 84.332-5.9023 6.4727-16.363 16.195-16.883 15.691-0.16016-0.15234-0.64453-4.3516-1.0859-9.3633-0.66406-7.6406-3.418-23.949-4.8477-28.648-0.28516-0.94531-1.793 1.1641-5.4609 7.6328-16.594 29.297-33.977 47.316-56.285 58.363-3.5664 1.7656-7.4219 3.4531-8.582 3.7539-1.8906 0.48828-2.0469 0.39844-1.5586-0.84375 1.9414-4.8984 3.4102-10.035 4.3125-15.117 1.1641-6.543 2.1602-17.152 1.6055-17.152-0.19922 0-4.2891 2.5664-9.1641 5.7578-17.879 11.703-32.461 17.691-49.723 20.426-7.1641 1.1406-22.242 0.95312-29.73-0.36328-13.09-2.3047-28.395-8.4336-40.133-16.082l-4.3555-2.8359 10.613-0.84375c23.555-1.8711 36.422-8.6016 43.535-22.785 3.3164-6.625 3.9922-10.84 3.6172-22.539-0.18359-5.793-0.30469-17.598-0.25-26.176 0.097656-17.445 1.4492-26.473 5.3281-35.766 2.2773-5.457 7.1797-12.672 11.234-16.551l2.6953-2.5664 4.8672 2.5195c10.609 5.5078 21.332 15.336 25.082 22.996 1.7812 3.6367 1.5234 3.5938 11.926 2.0469 18.605-2.7578 36.055-10.688 45.887-20.875l2.4531-2.5469-0.91016-5.5273c-0.57812-3.5391-0.76172-9.4805-0.50781-16.605 0.32812-9.0898 0.74219-12.242 2.293-17.484 2.1914-7.4102 5.0625-13.395 8.7188-18.172 1.4492-1.8867 2.6172-3.5156 2.6172-3.6367 0-0.125-1.8906 0.019531-4.1445 0.30469-11.418 1.4453-20.512 0.22266-22.965-3.0703l-1.4648-1.957 1.8906-3.3477c1.0273-1.8125 1.7578-3.3477 1.5977-3.3477s-2.543 0.53125-5.2344 1.1523c-7.6328 1.7773-14.207 1.7305-16.723-0.11328-2.5273-1.8594-3.0117-5.0312-1.2852-8.3789 1.0547-2.043 1.0742-2.2695 0.125-1.9023-9.0898 3.5039-15.367 5.1016-21.371 5.4453l-6.6914 0.38672-2.2266-2.2539c-2.3828-2.4219-2.9375-6.1133-1.4766-9.8984 0.38672-1.0195 0.57813-1.8789 0.39453-1.8789-0.17969 0-1.8516 1.3125-3.6641 2.8789-3.9258 3.375-8.6289 6.168-11.559 6.8477-6.3828 1.4883-12.461-11.113-9.9102-20.566 3.1562-11.652 14.348-16.75 29.836-13.555m41.062-62.973c2.25 6.0234 10.484 21.734 15.055 28.707 6.9102 10.543 12.785 17.676 21.379 25.938 9.543 9.1797 16.574 14.176 28.129 20.008l8.6523 4.3672 2.5 6.1758c4.4961 11.125 9.0391 24.961 8.4062 25.594-0.32031 0.32031-3.2734-1.5469-6.6172-4.1953-28.062-22.203-53.188-38.035-76.984-48.527-9.9609-4.3945-23.98-9.5078-31.184-11.387-1.7461-0.45312-3.125-1.1641-3.125-1.6094 0-0.94141 31.426-48.539 32.059-48.547 0.23047-0.011719 1.0273 1.5859 1.7305 3.4766zm-80.605-76.137c-30.684 4.4688-56.277 25.102-67.293 54.25l-2.6367 6.9805-8.8008-0.16406c-10.25-0.19922-15.887 0.67578-23.699 3.7031-11.047 4.2656-22.621 13.938-28.32 23.652-15.914 27.117-8.8516 61.039 16.398 78.789 9.8633 6.9414 20.426 10.121 33.59 10.121 14.391 0 25.707-3.7031 32.855-10.766 7.9141-7.8086 11.422-17 10.969-28.781-0.24609-6.3945-0.58203-7.9844-2.6055-12.285-2.6602-5.6719-7.8711-11.148-13.02-13.695-2.9375-1.4531-4.5781-1.7188-10.395-1.7188-6.0352 0-7.3633 0.24219-10.539 1.9258-6.4375 3.4258-9.0898 7.7422-9.0898 14.793 0 4.8633 1.4141 7.9141 4.5781 9.8398 4.9023 2.9961 10.281 0.76562 12.023-4.9766 1.2539-4.1406 4.7539-6.9336 8.043-6.4062 5.8477 0.95312 7.7969 5.8945 4.7305 12-4.3281 8.5938-10.906 12.742-20.285 12.777-5.0898 0.019531-6.3086-0.25391-9.7461-2.1562-8.2148-4.5469-12.094-12.219-11.574-22.906 0.37891-7.707 2.5898-12.824 7.7969-18.027 6.9219-6.9219 15.633-9.9961 26.828-9.4688 5.957 0.28125 7.2188 0.60547 12.715 3.3438 10.746 5.3438 18.98 15.719 22.027 27.789 1.7461 6.8945 1.1211 19.695-1.3008 26.742l-1.8242 5.3086 4.2852 2.1797c5.6445 2.8594 17.887 6.9102 24.066 7.9609l4.9375 0.83984-1.2344 1.9336c-0.68359 1.0625-3.6211 5.4492-6.5781 9.8125-2.9609 4.3633-5.3477 8.1484-5.3477 8.4688 0 0.32031 2.2891 3.3047 5.0898 6.6523 2.8047 3.3398 5.0898 6.2812 5.0898 6.5352 0 0.26953-5.3594 7.7891-11.926 16.723l-11.922 16.25 2.3203 0.64844c11.484 3.168 17.543 4.9453 18.324 5.3789 0.68359 0.375-0.082031 1.8281-2.7656 5.2383-4.8984 6.25-9.6523 16.215-11.781 24.715-2.8516 11.367-3.6133 22.105-2.9648 41.441 0.3125 9.3711 0.51172 18.883 0.4375 21.074-0.18359 5.668-1.9023 11.047-4.6836 14.691-10.684 13.977-35.672 16.711-68.379 7.4766-6.3242-1.7852-11.688-3.2578-11.848-3.2578s2.7656 3.4844 6.4492 7.707c12.379 14.141 22.699 22.75 36.945 30.797 2.9844 1.6797 5.625 3.3398 5.8242 3.6523 0.59375 0.93359 10.316 5.5977 19.766 9.4922 24.098 9.9219 48.199 14.949 75.457 15.727 37.66 1.0898 70.941-6.2812 103.96-23.043 17.008-8.6328 27.277-15.863 43.18-30.41 27.633-25.289 45.676-55.727 52.184-88.07 1.4219-7.0664 1.6875-10.617 1.6875-22.906 0-13.516-1.1133-25.27-2.4727-26.133-0.28516-0.18359-3.0859 0.51953-6.2852 1.5664-4.625 1.5078-7.2344 1.8906-13.051 1.9102-11.121 0.039063-18.637-2.457-28.418-9.4297-5.3555-3.8203-7.5117-6.5156-10.852-13.562-4.8125-10.176-4.9961-20.73-0.51953-30.238 2.5234-5.3711 9.4805-12.301 15.078-15.031 3.9062-1.9102 5.0898-2.1328 11.266-2.1328 6.5391 0 7.1523 0.13281 11.633 2.6055 8.5781 4.7305 13.344 13.762 11.641 22.047-1.8945 9.1562-9.8633 16.293-18.328 16.398-3.125 0.039063-10.508-1.7656-11.848-2.8945-1.5234-1.2852-2.7031-5.0039-2.2148-6.9648 0.78516-3.1602 3.5977-5.3828 6.7969-5.3828 1.5234 0 3.3945 0.47656 4.1836 1.0625 0.78906 0.59375 2.7266 1.0664 4.3945 1.0859 3.707 0.03125 5.4336-1.6992 5.8906-5.918 0.67188-6.082-4.8672-11.145-12.137-11.074-6.9805 0.0625-13.223 4.5273-16.574 11.867-2.4453 5.3555-2.0703 13.82 0.875 19.711 3.9336 7.8711 12.207 14.035 21.52 16.047 5.0156 1.0742 14.668 0.46875 18.902-1.1875 15.391-6.0195 27.434-22.996 28.793-40.594 1.8711-24.199-10.859-50.891-30.609-64.184-5.7383-3.8594-13.676-7.832-13.965-6.9844-1.0898 3.2383-6.6836 10.773-11.191 15.078-6.125 5.8516-12.285 9.6172-19.914 12.156-6.7617 2.2578-19.734 2.4258-25.809 0.33984-17.371-5.9609-27.625-19.074-27.625-35.359 0-17.078 11.934-30.527 27.258-30.703 6.7617-0.085938 11.613 1.8906 16.43 6.6758 5.1875 5.1523 6.8047 9.5625 6.3047 17.113-0.42578 6.3281-2.3125 10.008-7.7617 15.117-4.3633 4.0977-7.3594 4.5508-10.832 1.6211-4.2891-3.6211-3.4141-9.0234 1.9648-12.051 3.1289-1.7695 4.4375-3.9531 4.4375-7.4453 0-9.2305-13.645-11.902-20.781-4.0742-3.4648 3.8164-4.3008 6.4727-4.3008 13.742 0 6.1094 0.22656 7.332 1.9492 10.617 4.0312 7.6328 13.023 13.188 22.547 13.898 17.023 1.2734 32.578-9.8359 37.797-26.988 1.8086-5.9492 1.4922-11.992-1.1602-22.457-6.5117-25.629-25.953-44.926-52.629-52.254-4.6523-1.2773-7.6328-1.5469-17.594-1.5781-10.617-0.03125-12.805 0.18359-19.047 1.8789-8.4297 2.2891-18.16 6.8906-24.203 11.453l-4.4375 3.3516-2.5234-3.707c-3.7422-5.4883-14.781-16.723-21.027-21.395-17.625-13.164-41.598-19.188-63.547-15.992z"/>
  <path d="m262.33 357.73c-17.188 4.9805-31.391 9.1836-31.551 9.3477-0.15625 0.16016 3.4297 3.7852 7.9922 8.0859 4.5664 4.2969 8.0469 8.0039 7.7656 8.2734-0.28125 0.25391-11.223 4.2539-24.281 8.8711-13.062 4.6211-24.004 8.6055-24.285 8.8516-0.28125 0.24219 3.5234 4.3086 8.4688 9.0625l8.9727 8.6211-9.0977 5.9297c-4.9961 3.2539-16.867 10.918-26.312 16.992-9.4531 6.0703-17.168 11.117-17.109 11.184 0.31641 0.37109 88.527-21.684 88.527-22.125 0-0.24609-2.8711-4.4961-6.375-9.4492-3.5-4.9453-6.1406-9.2148-5.8633-9.4727 0.28125-0.26562 10.332-4.1016 22.383-8.5352 12.043-4.4375 21.965-8.1445 22.078-8.2539 0.14062-0.14844-8.3984-9.6953-16.508-18.438l-1.7656-1.8984 14.898-12.871c8.1797-7.0664 14.898-12.992 14.898-13.121 0-0.53516-2.2188 0.074219-32.836 8.9453"/>
  <path d="m282.4 424.88c-13.277 3.8398-24.195 7.0703-24.336 7.2109s2.5586 2.918 6.0625 6.2305c4.4453 4.2305 6.0234 6.1523 5.3555 6.5391-0.51953 0.29688-8.9727 3.4102-18.824 6.9297-9.8555 3.5195-18.039 6.5312-18.246 6.7148-0.19922 0.17578 2.7695 3.2617 6.5703 6.8203 6.7148 6.2891 6.8906 6.5312 5.4688 7.6211-0.79688 0.62109-9.7422 6.4648-19.809 12.953-10.066 6.4883-18.234 11.938-18.09 12.07 0.13672 0.14062 15.391-3.4727 33.852-8.0234 22.254-5.4805 33.504-8.5625 33.312-9.1172-0.16016-0.46484-2.3281-3.6875-4.7812-7.1172-2.4531-3.4297-4.3203-6.5547-4.125-6.8945 0.19922-0.33594 7.8789-3.3594 17-6.6758s16.766-6.1523 16.926-6.2734c0.16016-0.11719-2.8789-3.6836-6.8203-7.9922-5.8125-6.3398-6.9336-7.9375-6.1289-8.6797 0.53906-0.49609 5.6914-4.957 11.387-9.8516 5.6875-4.8867 10.395-9.0703 10.395-9.2266 0.003906-0.49219-0.57812-0.33594-25.168 6.7617"/>
 </g>
</svg>